<?xml version="1.0" ?><svg enable-background="new 0 0 24 24" id="Layer_1" version="1.1" viewBox="0 0 24 24" xml:space="preserve" xmlns="http://www.w3.org/2000/svg" xmlns:xlink="http://www.w3.org/1999/xlink"><g><path d="M20.5,10h-1C19.2246094,10,19,9.7758789,19,9.5v-3C19,3.4672852,16.5322266,1,13.5,1h-7   C3.4677734,1,1,3.4672852,1,6.5v10C1,20.0839844,3.9160156,23,7.5,23h9c3.5839844,0,6.5-2.9160156,6.5-6.5v-4   C23,11.121582,21.8789063,10,20.5,10z M7.5,6h5C13.3271484,6,14,6.6728516,14,7.5S13.3271484,9,12.5,9h-5   C6.6728516,9,6,8.3271484,6,7.5S6.6728516,6,7.5,6z M16.5,18h-9C6.6728516,18,6,17.3271484,6,16.5S6.6728516,15,7.5,15h9   c0.8271484,0,1.5,0.6728516,1.5,1.5S17.3271484,18,16.5,18z" fill="#F47621"/><path d="M16.5,22.75h-9c-3.5839844,0-6.5-2.9160156-6.5-6.5v0.25C1,20.0839844,3.9160156,23,7.5,23h9   c3.5839844,0,6.5-2.9160156,6.5-6.5v-0.25C23,19.8339844,20.0839844,22.75,16.5,22.75z" fill="#010101" opacity="0.1"/><path d="M6.5,1.25h7c3.0322266,0,5.5,2.4672852,5.5,5.5V6.5C19,3.4672852,16.5322266,1,13.5,1h-7   C3.4677734,1,1,3.4672852,1,6.5v0.25C1,3.7172852,3.4677734,1.25,6.5,1.25z" fill="#FFFFFF" opacity="0.2"/><path d="M20.5,10.0031271h-1c-0.2753906,0-0.5-0.2241211-0.5-0.5v0.25   c0,0.2758789,0.2246094,0.5,0.5,0.5h1c1.3789063,0,2.5,1.121582,2.5,2.5v-0.25   C23,11.1247091,21.8789063,10.0031271,20.5,10.0031271z" fill="#FFFFFF" opacity="0.2"/><linearGradient gradientUnits="userSpaceOnUse" id="SVGID_1_" x1="0.1036405" x2="23.0228176" y1="7.203783" y2="17.8911705"><stop offset="0" style="stop-color:#FFFFFF;stop-opacity:0.2"/><stop offset="1" style="stop-color:#FFFFFF;stop-opacity:0"/></linearGradient><path d="M20.5,10h-1C19.2246094,10,19,9.7758789,19,9.5v-3C19,3.4672852,16.5322266,1,13.5,1h-7   C3.4677734,1,1,3.4672852,1,6.5v10C1,20.0839844,3.9160156,23,7.5,23h9c3.5839844,0,6.5-2.9160156,6.5-6.5v-4   C23,11.121582,21.8789063,10,20.5,10z M7.5,6h5C13.3271484,6,14,6.6728516,14,7.5S13.3271484,9,12.5,9h-5   C6.6728516,9,6,8.3271484,6,7.5S6.6728516,6,7.5,6z M16.5,18h-9C6.6728516,18,6,17.3271484,6,16.5S6.6728516,15,7.5,15h9   c0.8271484,0,1.5,0.6728516,1.5,1.5S17.3271484,18,16.5,18z" fill="url(#SVGID_1_)"/></g><g/><g/><g/><g/><g/><g/><g/><g/><g/><g/><g/><g/><g/><g/><g/></svg>