<?xml version="1.0" ?><svg enable-background="new 0 0 24 24" id="Layer_1" version="1.1" viewBox="0 0 24 24" xml:space="preserve" xmlns="http://www.w3.org/2000/svg" xmlns:xlink="http://www.w3.org/1999/xlink"><g><path d="M21,23H3c-1.1045696,0-2-0.8954296-2-2V3c0-1.1045696,0.8954304-2,2-2h18c1.1045704,0,2,0.8954304,2,2v18   C23,22.1045704,22.1045704,23,21,23z" fill="#0377BD"/><path d="M21,1H3C1.8954468,1,1,1.8953857,1,3v0.25c0-1.1046143,0.8954468-2,2-2h18   c1.1045532,0,2,0.8953857,2,2V3C23,1.8953857,22.1045532,1,21,1z" fill="#FFFFFF" opacity="0.2"/><path d="M21,22.75H3c-1.1045532,0-2-0.8954468-2-2V21c0,1.1045532,0.8954468,2,2,2h18   c1.1045532,0,2-0.8954468,2-2v-0.25C23,21.8545532,22.1045532,22.75,21,22.75z" fill="#010101" opacity="0.1"/><g><circle cx="6" cy="6" fill="#FFFFFF" r="2"/><rect fill="#FFFFFF" height="11" width="4" x="4" y="9"/><path d="M15.5,9c-1.0839844,0-1.8496094,0.3056641-2.5,0.8144531V9H9v11h4v-6c0-1.2524414,0.5605469-2,1.5-2    s1.5,0.7475586,1.5,2v6h4v-6C20,10.9624023,18.2333984,9,15.5,9z" fill="#FFFFFF"/></g><linearGradient gradientUnits="userSpaceOnUse" id="SVGID_1_" x1="4.1468201" x2="20.5131149" y1="7.9490051" y2="24.3153"><stop offset="0" style="stop-color:#010101;stop-opacity:0.1"/><stop offset="1" style="stop-color:#010101;stop-opacity:0"/></linearGradient><path d="M18.8692017,10.4735718l-0.0125732,0.0002441C19.5835571,11.338501,20,12.5405884,20,14v6h-4v-6   c0-1.2524414-0.5605469-2-1.5-2S13,12.7475586,13,14v6H9V9h2.8217163l-4.362793-4.362793L7.4569702,4.638855   C7.7911987,4.99646,8,5.4729614,8,6c0,1.1030273-0.8969727,2-2,2C5.499939,8,5.0477905,7.8091431,4.6968384,7.5048218L6.1920166,9   H8v11H4l3,3h14c1.1045532,0,2-0.8954468,2-2v-6.3956299L18.8692017,10.4735718z" fill="url(#SVGID_1_)"/><linearGradient gradientUnits="userSpaceOnUse" id="SVGID_2_" x1="-0.6527924" x2="24.652792" y1="6.099906" y2="17.9000931"><stop offset="0" style="stop-color:#FFFFFF;stop-opacity:0.2"/><stop offset="1" style="stop-color:#FFFFFF;stop-opacity:0"/></linearGradient><path d="M21,23H3c-1.1045696,0-2-0.8954296-2-2V3c0-1.1045696,0.8954304-2,2-2h18   c1.1045704,0,2,0.8954304,2,2v18C23,22.1045704,22.1045704,23,21,23z" fill="url(#SVGID_2_)"/></g><g/><g/><g/><g/><g/><g/><g/><g/><g/><g/><g/><g/><g/><g/><g/></svg>