<?xml version="1.0" ?><svg enable-background="new 0 0 24 24" id="Layer_1" version="1.1" viewBox="0 0 24 24" xml:space="preserve" xmlns="http://www.w3.org/2000/svg" xmlns:xlink="http://www.w3.org/1999/xlink"><g><polygon fill="#333333" points="24,2.5 24,2 17.5,2 12.5,14 7.5,2 0,2 0,2.5 2,5.9545288 2,18 0,21.5 0,22 7,22 7,21.5 4.5,18    4.5,10.2727661 11,21.5 11.5,21.5 17,7.75 17,19 15,21.5 15,22 24,22 24,21.5 22,19 22,4.5  "/><linearGradient gradientUnits="userSpaceOnUse" id="SVGID_1_" x1="-1.6869478" x2="25.6869488" y1="5.6176715" y2="18.382328"><stop offset="0" style="stop-color:#FFFFFF;stop-opacity:0.2"/><stop offset="1" style="stop-color:#FFFFFF;stop-opacity:0"/></linearGradient><polygon fill="url(#SVGID_1_)" points="24,2.5 24,2 17.5,2 12.5,14 7.5,2 0,2 0,2.5 2,5.9545288 2,18 0,21.5 0,22 7,22 7,21.5    4.5,18 4.5,10.2727661 11,21.5 11.5,21.5 17,7.75 17,19 15,21.5 15,22 24,22 24,21.5 22,19 22,4.5  "/></g><g/><g/><g/><g/><g/><g/><g/><g/><g/><g/><g/><g/><g/><g/><g/></svg>