<?xml version="1.0" ?><svg enable-background="new 0 0 24 24" id="Layer_1" version="1.1" viewBox="0 0 24 24" xml:space="preserve" xmlns="http://www.w3.org/2000/svg" xmlns:xlink="http://www.w3.org/1999/xlink"><g><path d="M12,1C6.6777344,1,1,1.734375,1,10.5c0,4.640625,1.6367188,7.4970703,5,8.7167969v2.2509766   C6,22.3125,6.6874924,23,7.5322266,23c0.4404297,0,0.8603516-0.1904297,1.1523438-0.5234375l2.1835938-2.4941406   C11.2421875,19.9931641,11.6191406,20,12,20c5.3222656,0,11-0.734375,11-9.5S17.3222656,1,12,1z" fill="#484A9A"/><path d="M12,1C6.6777344,1,1,1.734375,1,10.5c0,0.0415649,0.005249,0.0773926,0.0054932,0.1186523   C1.0650635,1.9837646,6.7058716,1.25,12,1.25c5.2954712,0,10.9379883,0.7338257,10.994751,9.375   C22.9950562,10.5812378,23,10.5441284,23,10.5C23,1.734375,17.3222656,1,12,1z" fill="#FFFFFF" opacity="0.2"/><path d="M12,19.75c-0.3808594,0-0.7578125-0.0068359-1.1318359-0.0175781l-2.1835938,2.4941406   C8.3925781,22.5595703,7.9726563,22.75,7.5322266,22.75C6.6874924,22.75,6,22.0625,6,21.2177734v0.25   C6,22.3125,6.6874924,23,7.5322266,23c0.4404297,0,0.8603516-0.1904297,1.1523438-0.5234375l2.1835938-2.4941406   C11.2421875,19.9931641,11.6191406,20,12,20c5.3222656,0,11-0.734375,11-9.5c0-0.0441284-0.0049438-0.0812378-0.005249-0.125   C22.9379883,19.0161743,17.2954712,19.75,12,19.75z" fill="#010101" opacity="0.1"/><path d="M6,19.2158165v-0.25c-3.3331909-1.2088013-4.9654541-4.0307007-4.9945068-8.5981445   C1.005188,10.4136314,1,10.4526329,1,10.4990196C1,15.1396446,2.6367188,17.9960899,6,19.2158165z" fill="#010101" opacity="0.1"/><g><path d="M16.7207031,13.0517578c-0.0009766-0.0009766-1.2246094-0.6025391-1.9921875-0.9960938    c-0.8642578-0.4453125-1.8867188,0.3896484-2.3681641,0.8652344c-0.4355469-0.1699219-1.2998047-0.5673828-2.0068359-1.2744141    s-1.1044922-1.5712891-1.2744141-2.0068359c0.4755859-0.4814453,1.3105469-1.5009766,0.8652344-2.3681641    C9.5507813,6.5039063,8.9492188,5.2802734,8.9482422,5.2792969C8.8642578,5.1083984,8.6904297,5,8.5,5h-1C6.375,5,5,6.3847656,5,8    c0,1.5703125,1.8798828,4.5869141,3.1464844,5.8535156S12.4296875,17,14,17c1.6152344,0,3-1.375,3-2.5v-1    C17,13.3095703,16.8916016,13.1357422,16.7207031,13.0517578z" fill="#FFFFFF"/><path d="M12,9c0.5517578,0,1,0.4482422,1,1c0,0.2763672,0.2236328,0.5,0.5,0.5S14,10.2763672,14,10    c0-1.1025391-0.8974609-2-2-2c-0.2763672,0-0.5,0.2236328-0.5,0.5S11.7236328,9,12,9z" fill="#FFFFFF"/><path d="M12,4c-0.2763672,0-0.5,0.2236328-0.5,0.5S11.7236328,5,12,5c2.7568359,0,5,2.2431641,5,5    c0,0.2763672,0.2236328,0.5,0.5,0.5S18,10.2763672,18,10C18,6.6914063,15.3085938,4,12,4z" fill="#FFFFFF"/><path d="M12,7c1.6542969,0,3,1.3457031,3,3c0,0.2763672,0.2236328,0.5,0.5,0.5S16,10.2763672,16,10    c0-2.2060547-1.7939453-4-4-4c-0.2763672,0-0.5,0.2236328-0.5,0.5S11.7236328,7,12,7z" fill="#FFFFFF"/></g><linearGradient gradientUnits="userSpaceOnUse" id="SVGID_1_" x1="8.1107025" x2="20.3114071" y1="5.758255" y2="17.9589596"><stop offset="0" style="stop-color:#010101;stop-opacity:0.1"/><stop offset="1" style="stop-color:#010101;stop-opacity:0"/></linearGradient><path d="M16.75,6.3380737l0.0030518,0.0142822C17.5316162,7.364502,18,8.6271362,18,10   c0,0.2763672-0.2236328,0.5-0.5,0.5S17,10.2763672,17,10c0-0.2365112-0.0379028-0.4628296-0.0698242-0.6907349L15.1174927,7.496582   l-0.0009155,0.0266113C15.6608887,8.206604,16,9.0601807,16,10c0,0.2763672-0.2236328,0.5-0.5,0.5   c-0.2322998,0-0.4187012-0.1613159-0.4749756-0.3758545l-0.0029907,0.0848389l-1.368103-1.3320923l-0.0010376-0.0002441   C13.87146,9.1972046,14,9.5837402,14,10c0,0.2763672-0.2236328,0.5-0.5,0.5S13,10.2763672,13,10c0-0.5517578-0.4482422-1-1-1   c-0.2763672,0-0.5-0.2236328-0.5-0.5c0-0.1882935,0.1080933-0.3460693,0.2616577-0.4313354L8.7809448,5.0880127L8.7805176,5.093811   c0.0686035,0.0475464,0.1295166,0.107666,0.1677246,0.1854858c0.0009766,0.0009766,0.6025391,1.2246094,0.9960938,1.9921875   c0.4453125,0.8671875-0.3896484,1.8867188-0.8652344,2.3681641c0.1699219,0.4355469,0.5673828,1.2998047,1.2744141,2.0068359   s1.5712891,1.1044922,2.0068359,1.2744141c0.4814453-0.4755859,1.5039063-1.3105469,2.3681641-0.8652344   c0.7675781,0.3935547,1.9912109,0.9951172,1.9921875,0.9960938C16.8916016,13.1357422,17,13.3095703,17,13.5v1   c0,1.125-1.3847656,2.5-3,2.5c-1.5703125,0-4.5869141-1.8798828-5.8535156-3.1464844l6.0802612,6.0802612   c4.1340332-0.2697144,7.9620972-1.6171875,8.651062-7.4678955L16.75,6.3380737z" fill="url(#SVGID_1_)"/><linearGradient gradientUnits="userSpaceOnUse" id="SVGID_2_" x1="1.1720027" x2="21.6187897" y1="7.0293293" y2="16.5638237"><stop offset="0" style="stop-color:#FFFFFF;stop-opacity:0.2"/><stop offset="1" style="stop-color:#FFFFFF;stop-opacity:0"/></linearGradient><path d="M12,1C6.6777344,1,1,1.734375,1,10.5c0,4.640625,1.6367188,7.4970703,5,8.7167969v2.2509766   C6,22.3125,6.6874924,23,7.5322266,23c0.4404297,0,0.8603516-0.1904297,1.1523438-0.5234375l2.1835938-2.4941406   C11.2421875,19.9931641,11.6191406,20,12,20c5.3222656,0,11-0.734375,11-9.5S17.3222656,1,12,1z" fill="url(#SVGID_2_)"/></g><g/><g/><g/><g/><g/><g/><g/><g/><g/><g/><g/><g/><g/><g/><g/></svg>