<?xml version="1.0" ?><svg enable-background="new 0 0 24 24" id="Layer_1" version="1.1" viewBox="0 0 24 24" xml:space="preserve" xmlns="http://www.w3.org/2000/svg" xmlns:xlink="http://www.w3.org/1999/xlink"><g><path d="M12,0C5.3725586,0,0,5.3725586,0,12c0,2.4573975,0.7415161,4.7402954,2.0089722,6.6427612L0,24   l5.3572388-2.0089722C7.2596436,23.2584229,9.5426025,24,12,24c6.6274414,0,12-5.3726196,12-12C24,5.3725586,18.6274414,0,12,0z" fill="#31B34A"/><path d="M17.7207031,14.0512695c-0.0009766-0.0004883-1.2246094-0.6015625-1.9921875-0.9960938   c-0.8647461-0.4438477-1.8867188,0.3901367-2.3681641,0.8657227c-0.4355469-0.1694336-1.300293-0.5678711-2.0068359-1.2744141   s-1.1049805-1.5712891-1.2744141-2.0068359c0.4760742-0.480957,1.3110352-1.5004883,0.8657227-2.3681641   C10.550293,7.5039063,9.9492188,6.2802734,9.9487305,6.2792969C9.8647461,6.1083984,9.6904297,6,9.5,6h-1   C7.3745117,6,6,7.3842773,6,9c0,1.5703125,1.8793945,4.5864258,3.1464844,5.8535156S13.4296875,18,15,18   c1.6157227,0,3-1.3745117,3-2.5v-1C18,14.3095703,17.8916016,14.1352539,17.7207031,14.0512695z" fill="#FFFFFF"/><path d="M12,0.25c6.5852661,0,11.9259644,5.3058472,11.9937134,11.875   C23.9941406,12.0828857,24,12.0421753,24,12c0-6.6274414-5.3725586-12-12-12S0,5.3725586,0,12   c0,0.0482178,0.0048218,0.0952148,0.0053711,0.1432495C0.0633545,5.5655518,5.4086304,0.25,12,0.25z" fill="#FFFFFF" opacity="0.2"/><path d="M12,23.75c-2.4573975,0-4.7403564-0.7415771-6.6427612-2.0089722l-5.2481689,1.9680786L0,24   l5.3572388-2.0089722C7.2596436,23.2584229,9.5426025,24,12,24c6.6274414,0,12-5.3726196,12-12   c0-0.0421753-0.0058594-0.0828857-0.0062866-0.125C23.9259644,18.4441528,18.5852661,23.75,12,23.75z" fill="#010101" opacity="0.1"/><path d="M11.3535156,12.8964844c0.706543,0.706543,1.5712891,1.1049805,2.0068359,1.2744141   c0.4814453-0.4755859,1.503418-1.3095703,2.3681641-0.8657227c0.7675781,0.3945313,1.9912109,0.9956055,1.9921875,0.9960938   C17.8916016,14.3852539,18,14.5595703,18,14.75V14.5c0-0.1904297-0.1083984-0.3647461-0.2792969-0.4487305   c-0.0009766-0.0004883-1.2246094-0.6015625-1.9921875-0.9960938c-0.8647461-0.4438477-1.8867188,0.3901367-2.3681641,0.8657227   c-0.4355469-0.1694336-1.300293-0.5678711-2.0068359-1.2744141c-0.6304321-0.6304321-1.0046387-1.3703003-1.2006226-1.8353271   c-0.024353,0.0255127-0.0509033,0.0554199-0.0737915,0.0784912C10.2485352,11.3251953,10.6469727,12.1899414,11.3535156,12.8964844   z" fill="#FFFFFF" opacity="0.2"/><path d="M10.9448242,8.2714844C10.550293,7.5039063,9.9492188,6.2802734,9.9487305,6.2792969   C9.8647461,6.1083984,9.6904297,6,9.5,6h-1C7.3745117,6,6,7.3842773,6,9c0,0.0336914,0.0125732,0.0766602,0.0142822,0.1116943   C6.0907593,7.5571899,7.4073486,6.25,8.5,6.25h1c0.1904297,0,0.3647461,0.1083984,0.4487305,0.2792969   c0.0004883,0.0009766,0.6015625,1.2246094,0.9960938,1.9921875c0.0747681,0.145752,0.1030884,0.2960815,0.1134033,0.4470825   C11.0870972,8.7340088,11.0609131,8.4976807,10.9448242,8.2714844z" fill="#FFFFFF" opacity="0.2"/><path d="M9.1464844,14.8535156C10.4135742,16.1206055,13.4296875,18,15,18   c1.6157227,0,3-1.3745117,3-2.5v-0.25c0,1.1254883-1.3842773,2.5-3,2.5c-1.5703125,0-4.5864258-1.8793945-5.8535156-3.1464844   c-1.2398682-1.2398682-3.0543823-4.145874-3.1322021-5.7418213C6.0119629,8.9083862,6,8.9528809,6,9   C6,10.5703125,7.8793945,13.5864258,9.1464844,14.8535156z" fill="#010101" opacity="0.1"/><linearGradient gradientUnits="userSpaceOnUse" id="SVGID_1_" x1="7.5054908" x2="19.9581661" y1="8.5427885" y2="20.9954643"><stop offset="0" style="stop-color:#010101;stop-opacity:0.1"/><stop offset="1" style="stop-color:#010101;stop-opacity:0"/></linearGradient><path d="M9.8764648,6.171814L9.87323,6.1958618   c0.0241089,0.0293579,0.0582886,0.0484619,0.0755005,0.0834351c0.0004883,0.0009766,0.6015625,1.2246094,0.9960938,1.9921875   c0.4453125,0.8676758-0.3896484,1.887207-0.8657227,2.3681641c0.1694336,0.4355469,0.5678711,1.300293,1.2744141,2.0068359   s1.5712891,1.1049805,2.0068359,1.2744141c0.4814453-0.4755859,1.503418-1.3095703,2.3681641-0.8657227   c0.7675781,0.3945313,1.9912109,0.9956055,1.9921875,0.9960938C17.8916016,14.1352539,18,14.3095703,18,14.5v1   c0,1.1254883-1.3842773,2.5-3,2.5c-1.5010376,0-4.3063354-1.7120972-5.6590576-2.9703369   c1.5604248,1.5985718,5.8561401,5.9893799,7.7504883,7.824707c2.0710449-0.9733887,3.8158569-2.5160522,5.0343018-4.4332886   L9.8764648,6.171814z" fill="url(#SVGID_1_)"/><linearGradient gradientUnits="userSpaceOnUse" id="SVGID_2_" x1="0.2882498" x2="22.0448322" y1="8.714715" y2="18.8599758"><stop offset="0" style="stop-color:#FFFFFF;stop-opacity:0.2"/><stop offset="1" style="stop-color:#FFFFFF;stop-opacity:0"/></linearGradient><path d="M12,0C5.3725586,0,0,5.3725586,0,12c0,2.4573975,0.7415161,4.7402954,2.0089722,6.6427612L0,24   l5.3572388-2.0089722C7.2596436,23.2584229,9.5426025,24,12,24c6.6274414,0,12-5.3726196,12-12C24,5.3725586,18.6274414,0,12,0z" fill="url(#SVGID_2_)"/></g><g/><g/><g/><g/><g/><g/><g/><g/><g/><g/><g/><g/><g/><g/><g/></svg>