<?xml version="1.0" ?><svg enable-background="new 0 0 24 24" id="Layer_1" version="1.1" viewBox="0 0 24 24" xml:space="preserve" xmlns="http://www.w3.org/2000/svg" xmlns:xlink="http://www.w3.org/1999/xlink"><g><path d="M12,0C5.3833008,0,0,5.3833008,0,12s5.3833008,12,12,12s12-5.3833008,12-12S18.6166992,0,12,0z M12,23   C5.9345703,23,1,18.0654297,1,12S5.9345703,1,12,1s11,4.9345703,11,11S18.0654297,23,12,23z" fill="#676767"/><path d="M2.8406982,8C2.3030396,9.2261963,2,10.5776367,2,12c0,4.0490112,2.4231567,7.5358887,5.8916626,9.1070557   L3.2767944,8H2.8406982z" fill="#676767"/><path d="M8,7.5C8,7.7763672,7.7763672,8,7.5,8H7.2115479l2.8035889,8.6972656   c0.5109863-1.4570923,1.0367432-2.9713135,1.4447632-4.180481L9.8695679,8H9.5C9.2236328,8,9,7.7763672,9,7.5S9.2236328,7,9.5,7H14   c0.2763672,0,0.5,0.2236328,0.5,0.5S14.2763672,8,14,8h-0.1956787l2.8035889,8.6972656   c0.5810547-1.65625,1.1850586-3.3969727,1.6079102-4.6665039c0.1918945-0.9594727-0.5527344-2.1650391-1.2138672-3.2348633   C16.487793,7.9633789,16.043457,7.2441406,16.043457,6.6303711c0-1.8725586,1.0898438-2.1523438,1.7392578-2.1523438   c0.3914795,0,0.7495117,0.1047363,1.0784912,0.2663574C17.0685425,3.0482788,14.6568604,2,12,2   C8.3081665,2,5.0852051,4.0160522,3.3529663,7H7.5C7.7763672,7,8,7.2236328,8,7.5z" fill="#676767"/><path d="M9.3314819,21.6275024C10.1824951,21.8637695,11.0747681,22,12,22   c0.9249878,0,1.8169556-0.1361694,2.6677246-0.3723145l-2.6708984-7.5859375   C11.041626,16.8226929,9.7711792,20.3946533,9.3314819,21.6275024z" fill="#676767"/><path d="M20.1228027,6.1894531c0.4087524,1.2789917-0.0927734,3.4560547-0.6242676,5.1352539   c-0.0864258,0.2739258-0.1938477,0.6020508-0.3164063,0.9707031c-0.0117188,0.050293-0.0249023,0.1005859-0.0400391,0.1508789   c-0.0112305,0.0385742-0.0273438,0.0751953-0.046875,0.1088867c-0.8516846,2.5397339-2.3212891,6.6864014-2.9851074,8.5510254   C19.5776978,19.5346069,22,16.0483398,22,12C22,9.8322754,21.2992554,7.8292847,20.1228027,6.1894531z" fill="#676767"/><linearGradient gradientUnits="userSpaceOnUse" id="SVGID_1_" x1="1.1249185" x2="22.875082" y1="6.9288664" y2="17.0711346"><stop offset="0" style="stop-color:#FFFFFF;stop-opacity:0.2"/><stop offset="1" style="stop-color:#FFFFFF;stop-opacity:0"/></linearGradient><path d="M12,0C5.3833008,0,0,5.3833008,0,12s5.3833008,12,12,12s12-5.3833008,12-12S18.6166992,0,12,0z" fill="url(#SVGID_1_)"/></g><g/><g/><g/><g/><g/><g/><g/><g/><g/><g/><g/><g/><g/><g/><g/></svg>