<?xml version="1.0" ?><!DOCTYPE svg  PUBLIC '-//W3C//DTD SVG 1.1//EN'  'http://www.w3.org/Graphics/SVG/1.1/DTD/svg11.dtd'><svg height="512px" style="enable-background:new 0 0 512 512;" version="1.1" viewBox="0 0 512 512" width="512px" xml:space="preserve" xmlns="http://www.w3.org/2000/svg" xmlns:xlink="http://www.w3.org/1999/xlink"><g id="_x38_3-facebook"><g><g><path d="M434.949,16.75H77.045c-32.893,0-59.648,26.831-59.648,59.812v358.871     c0,32.985,26.756,59.816,59.648,59.816h357.904c32.898,0,59.654-26.831,59.654-59.816V76.563     C494.604,43.581,467.848,16.75,434.949,16.75L434.949,16.75z M434.949,16.75" style="fill:#1B80E4;"/><path d="M420.039,256h-74.564v-59.813c0-16.51,13.365-14.951,29.824-14.951h29.83v-74.768h-59.654     c-49.42,0-89.473,40.162-89.473,89.719V256h-59.65v74.766h59.65V495.25h89.473V330.766h44.738L420.039,256z M420.039,256" style="fill:#FCFCFC;"/></g></g></g><g id="Layer_1"/></svg>