<?xml version="1.0" ?><svg style="enable-background:new 0 0 64 64;" version="1.1" viewBox="0 0 64 64" xml:space="preserve" xmlns="http://www.w3.org/2000/svg" xmlns:xlink="http://www.w3.org/1999/xlink"><style type="text/css">
	.st0{fill:#4267B2;}
	.st1{fill:url(#SVGID_1_);}
	.st2{fill:#FFFFFF;}
	.st3{fill:#C2191E;}
	.st4{fill:#1DA1F3;}
	.st5{fill:#FEFE00;}
	.st6{fill:#25D366;stroke:#FFFFFF;stroke-width:5;stroke-miterlimit:10;}
	.st7{fill:#CB2027;}
	.st8{fill:#0077B5;}
	.st9{fill:url(#SVGID_2_);}
	.st10{fill:url(#SVGID_3_);}
	.st11{fill:#FF004F;}
	.st12{fill:#00F7EF;}
	.st13{fill:#5181B8;}
	.st14{fill:#395976;}
	.st15{fill:#F58220;}
	.st16{fill:#E6162D;}
	.st17{fill:#FF9933;}
	.st18{fill:#FF4500;}
	.st19{fill:#0F88EB;}
</style><g id="guidlines"/><g id="FB"/><g id="ig"/><g id="yt"/><g id="twitter"/><g id="snapchat"/><g id="WA"/><g id="Pinterrest"/><g id="Layer_9"/><g id="Layer_10"/><g id="Layer_11"/><g id="Layer_12"/><g id="Layer_13"/><g id="Layer_14"/><g id="Layer_15"/><g id="Layer_16"><g><circle class="st18" cx="32" cy="32" r="30"/><path class="st2" d="M52,32c0-2.210022-1.789978-4-4-4c-1.4500122,0-2.7199707,0.7699585-3.4199829,1.9299927    c-2.8978882-2.2456055-6.9917603-3.7012939-11.5726929-3.8917847l1.8012695-10.8057861l6.9492188,1.7373047    c0.0822754,0.020813,0.1628418,0.0117188,0.2440796,0.0114746C42.0018311,16.9876099,42,16.9935303,42,17    c0,1.6568604,1.3431396,3,3,3s3-1.3431396,3-3s-1.3431396-3-3-3c-0.9818726,0-1.845459,0.4785156-2.3927612,1.2077026    c-0.1055298-0.0809326-0.2277832-0.1431885-0.3650513-0.1774292l-8-2    c-0.2714844-0.0703125-0.5566406-0.0205078-0.7900391,0.1337891c-0.2333984,0.1523438-0.3925781,0.3964844-0.4384766,0.671875    l-2,12c-0.0115356,0.0690308,0.0042114,0.1339111,0.006897,0.2012329    c-4.5922241,0.1856689-8.6968384,1.6426392-11.6005859,3.8928223C18.7199707,28.7699585,17.4500122,28,16,28    c-2.210022,0-4,1.789978-4,4c0,1.9599609,1.4000244,3.5799561,3.2600098,3.9299927C15.0900269,36.5999756,15,37.289978,15,38    c0,6.6300049,7.6099854,12,17,12s17-5.3699951,17-12c0-0.710022-0.0900269-1.4000244-0.2600098-2.0700073    C50.5999756,35.5799561,52,33.9599609,52,32z M22,35c0-1.6568604,1.3431396-3,3-3s3,1.3431396,3,3s-1.3431396,3-3,3    S22,36.6568604,22,35z M39.6171875,43.4970703C37.5566406,45.1113281,34.8515625,46,32,46    s-5.5566406-0.8886719-7.6171875-2.5029297c-0.4345703-0.3408203-0.5107422-0.96875-0.1699219-1.4042969    c0.3408203-0.4335938,0.96875-0.5117188,1.4042969-0.1699219C27.3261719,43.2626953,29.59375,44,32,44    s4.6738281-0.7373047,6.3828125-2.0771484c0.4355469-0.3417969,1.0634766-0.2636719,1.4042969,0.1699219    C40.1279297,42.5283203,40.0517578,43.15625,39.6171875,43.4970703z M39,38c-1.6568604,0-3-1.3431396-3-3s1.3431396-3,3-3    s3,1.3431396,3,3S40.6568604,38,39,38z"/></g></g><g id="Layer_17"/></svg>