<?xml version="1.0" ?><svg enable-background="new 0 0 24 24" id="Layer_1" version="1.1" viewBox="0 0 24 24" xml:space="preserve" xmlns="http://www.w3.org/2000/svg" xmlns:xlink="http://www.w3.org/1999/xlink"><g><path d="M19.979641,22.359375c-0.0214844-0.074707-0.5429688-1.8481445-1.0146484-3.0429688   c-0.0556641-0.1425781-0.1748047-0.2514648-0.3212891-0.2954102c-0.1474609-0.0444336-0.3076172-0.019043-0.4316406,0.0703125   c-0.6289063,0.4438477-1.9306641,0.3964844-2.9013681-0.1069336C14.7130384,18.6743164,14.0001478,18.078125,14.0001478,17v-7   h3.500001c0.2763672,0,0.5-0.2236328,0.5-0.5v-4c0-0.2763672-0.2236328-0.5-0.5-0.5h-3.500001V0.5   c0-0.2763672-0.2236328-0.5-0.5-0.5h-4c-0.2763672,0-0.5,0.2236328-0.5,0.5c0,3.6108398-2.2636719,5.5-4.5,5.5   c-0.2763672,0-0.5,0.2236328-0.5,0.5v3c0,0.2763672,0.2236328,0.5,0.5,0.5h3.5v8c0,4.1225586,3.3691406,6,6.5,6   c2.8232431,0,5.1074228-1.0004883,5.203126-1.0429688C19.9317894,22.8549805,20.0499535,22.5996094,19.979641,22.359375z" fill="#3B4B5D"/><path d="M14.0001478,5.25h3.500001c0.2763672,0,0.5,0.2236328,0.5,0.5V5.5   c0-0.2763672-0.2236328-0.5-0.5-0.5h-3.500001V5.25z" fill="#FFFFFF" opacity="0.2"/><path d="M4.5001478,6.25c2.2363281,0,4.5-1.8891602,4.5-5.5c0-0.2763672,0.2236328-0.5,0.5-0.5h4   c0.2763672,0,0.5,0.2236328,0.5,0.5V0.5c0-0.2763672-0.2236328-0.5-0.5-0.5h-4c-0.2763672,0-0.5,0.2236328-0.5,0.5   c0,3.6108398-2.2636719,5.5-4.5,5.5c-0.2763672,0-0.5,0.2236328-0.5,0.5v0.25C4.0001478,6.4736328,4.2237806,6.25,4.5001478,6.25z" fill="#FFFFFF" opacity="0.2"/><path d="M17.5001488,9.75h-3.500001V10h3.500001c0.2763672,0,0.5-0.2236328,0.5-0.5V9.25   C18.0001488,9.5263672,17.776516,9.75,17.5001488,9.75z" fill="#010101" opacity="0.1"/><path d="M8.0001478,9.75h-3.5c-0.2763672,0-0.5-0.2236328-0.5-0.5V9.5   c0,0.2763672,0.2236328,0.5,0.5,0.5h3.5V9.75z" fill="#010101" opacity="0.1"/><path d="M19.7032738,22.7070313C19.6075706,22.7495117,17.323391,23.75,14.5001478,23.75   c-3.1308594,0-6.5-1.8774414-6.5-6V18c0,4.1225586,3.3691406,6,6.5,6c2.8232431,0,5.1074228-1.0004883,5.203126-1.0429688   c0.2282104-0.1019287,0.3463135-0.3568726,0.2764282-0.5968018C19.9452782,22.5088501,19.8509789,22.6410522,19.7032738,22.7070313   z" fill="#010101" opacity="0.1"/><linearGradient gradientUnits="userSpaceOnUse" id="SVGID_1_" x1="3.494422" x2="22.8498535" y1="7.4732275" y2="16.4988136"><stop offset="0" style="stop-color:#FFFFFF;stop-opacity:0.2"/><stop offset="1" style="stop-color:#FFFFFF;stop-opacity:0"/></linearGradient><path d="M19.979641,22.359375c-0.0214844-0.074707-0.5429688-1.8481445-1.0146484-3.0429688   c-0.0556641-0.1425781-0.1748047-0.2514648-0.3212891-0.2954102c-0.1474609-0.0444336-0.3076172-0.019043-0.4316406,0.0703125   c-0.6289063,0.4438477-1.9306641,0.3964844-2.9013681-0.1069336C14.7130384,18.6743164,14.0001478,18.078125,14.0001478,17v-7   h3.500001c0.2763672,0,0.5-0.2236328,0.5-0.5v-4c0-0.2763672-0.2236328-0.5-0.5-0.5h-3.500001V0.5   c0-0.2763672-0.2236328-0.5-0.5-0.5h-4c-0.2763672,0-0.5,0.2236328-0.5,0.5c0,3.6108398-2.2636719,5.5-4.5,5.5   c-0.2763672,0-0.5,0.2236328-0.5,0.5v3c0,0.2763672,0.2236328,0.5,0.5,0.5h3.5v8c0,4.1225586,3.3691406,6,6.5,6   c2.8232431,0,5.1074228-1.0004883,5.203126-1.0429688C19.9317894,22.8549805,20.0499535,22.5996094,19.979641,22.359375z" fill="url(#SVGID_1_)"/></g><g/><g/><g/><g/><g/><g/><g/><g/><g/><g/><g/><g/><g/><g/><g/></svg>