<?xml version="1.0" ?><svg style="enable-background:new 0 0 64 64;" version="1.1" viewBox="0 0 64 64" xml:space="preserve" xmlns="http://www.w3.org/2000/svg" xmlns:xlink="http://www.w3.org/1999/xlink"><style type="text/css">
	.st0{fill:#4267B2;}
	.st1{fill:url(#SVGID_1_);}
	.st2{fill:#FFFFFF;}
	.st3{fill:#C2191E;}
	.st4{fill:#1DA1F3;}
	.st5{fill:#FEFE00;}
	.st6{fill:#25D366;stroke:#FFFFFF;stroke-width:5;stroke-miterlimit:10;}
	.st7{fill:#CB2027;}
	.st8{fill:#0077B5;}
	.st9{fill:url(#SVGID_2_);}
	.st10{fill:url(#SVGID_3_);}
	.st11{fill:#FF004F;}
	.st12{fill:#00F7EF;}
	.st13{fill:#5181B8;}
	.st14{fill:#395976;}
	.st15{fill:#F58220;}
	.st16{fill:#E6162D;}
	.st17{fill:#FF9933;}
</style><g id="guidlines"/><g id="FB"/><g id="ig"/><g id="yt"/><g id="twitter"/><g id="snapchat"/><g id="WA"/><g id="Pinterrest"/><g id="Layer_9"/><g id="Layer_10"/><g id="Layer_11"><path class="st13" d="M4,13.9c2.1,0,5.3,0,7.1,0c0.9,0,1.6,0.6,1.9,1.4c0.9,2.6,2.9,8.3,5.2,12.2c3.1,5.1,5.1,7,6.4,6.8   c1.3-0.3,0.9-3.7,0.9-6.4s0.3-7.3-1-9.4l-2-2.9c-0.5-0.7,0-1.6,0.8-1.6h11.4c1.1,0,2,0.9,2,2v14.5c0,0,0.5,2.6,3.3-0.1   c2.8-2.7,5.8-7.7,8.3-12.8l1-2.4c0.3-0.7,1-1.2,1.8-1.2h7.4c1.4,0,2.4,1.4,1.9,2.7l-0.8,2.1c0,0-2.7,5.4-5.5,9.2   c-2.8,3.9-3.4,4.8-3,5.8c0.4,1,7.6,7.7,9.4,10.9c0.5,0.9,0.9,1.7,1.3,2.4c0.7,1.3-0.3,3-1.8,3l-8.4,0c-0.7,0-1.4-0.4-1.7-1   l-0.8-1.3c0,0-5.1-6-8.2-7.9c-3.2-1.8-3.1,0.8-3.1,0.8v5.3c0,2.2-1.8,4-4,4h-2c0,0-11,0-19.8-13.1C5.1,26.7,2.8,20.1,2,16.3   C1.8,15.1,2.7,13.9,4,13.9z"/></g><g id="Layer_12"/><g id="Layer_13"/><g id="Layer_14"/><g id="Layer_15"/><g id="Layer_16"/><g id="Layer_17"/></svg>